<svg width="1244" height="902" viewBox="0 0 1244 902" fill="none" xmlns="http://www.w3.org/2000/svg">
<path d="M56.6848 113.173C86.7992 44.4181 154.746 0 229.807 0H1034.01C1099.87 0 1151.51 56.5509 1145.55 122.14L1143.48 144.882C1138.72 197.321 1149.39 250.01 1174.18 296.462L1216.59 375.92C1236.47 413.156 1245.52 455.213 1242.72 497.329L1232.54 650.317L1201.35 734.065C1173.76 808.129 1108.24 861.458 1030.12 873.442L873.75 897.43C849.616 901.132 825.148 902.177 800.786 900.545L328.929 868.944C209.978 860.977 124.192 751.633 144.762 634.204V634.204C156.374 567.912 141.698 499.704 103.846 444.055L18.0962 317.988C-1.25421 289.54 -4.62113 253.141 9.18251 221.626L56.6848 113.173Z" fill="#260B73"/>
</svg>
