<svg width="546" height="590" viewBox="0 0 546 590" fill="none" xmlns="http://www.w3.org/2000/svg">
<path d="M0 0L96.5136 91.8436C114.708 109.158 129.861 129.409 141.339 151.749L218.316 301.58C229.913 324.152 247.083 343.389 268.198 357.465L405.961 449.308C412.626 453.751 418.696 459.028 424.023 465.011L546 602H0V0Z" fill="#260B73"/>
<rect x="67" y="491" width="198" height="198" rx="99" fill="#6236B3"/>
<g filter="url(#filter0_d_60_27)">
<rect x="-133" y="604.325" width="430" height="98" rx="49" transform="rotate(-31.4455 -133 604.325)" fill="#DB4987"/>
</g>
<g filter="url(#filter1_d_60_27)">
<rect x="-82" y="604.325" width="430" height="50" rx="25" transform="rotate(-31.4455 -82 604.325)" fill="#FF6A20"/>
</g>
<defs>
<filter id="filter0_d_60_27" x="-120.641" y="392.359" width="401.255" height="291.214" filterUnits="userSpaceOnUse" color-interpolation-filters="sRGB">
<feFlood flood-opacity="0" result="BackgroundImageFix"/>
<feColorMatrix in="SourceAlpha" type="matrix" values="0 0 0 0 0 0 0 0 0 0 0 0 0 0 0 0 0 0 127 0" result="hardAlpha"/>
<feMorphology radius="6" operator="dilate" in="SourceAlpha" result="effect1_dropShadow_60_27"/>
<feOffset dx="4" dy="4"/>
<feGaussianBlur stdDeviation="2"/>
<feComposite in2="hardAlpha" operator="out"/>
<feColorMatrix type="matrix" values="0 0 0 0 0 0 0 0 0 0 0 0 0 0 0 0 0 0 0.25 0"/>
<feBlend mode="normal" in2="BackgroundImageFix" result="effect1_dropShadow_60_27"/>
<feBlend mode="normal" in="SourceGraphic" in2="effect1_dropShadow_60_27" result="shape"/>
</filter>
<filter id="filter1_d_60_27" x="-72.6331" y="389.367" width="380.199" height="255.248" filterUnits="userSpaceOnUse" color-interpolation-filters="sRGB">
<feFlood flood-opacity="0" result="BackgroundImageFix"/>
<feColorMatrix in="SourceAlpha" type="matrix" values="0 0 0 0 0 0 0 0 0 0 0 0 0 0 0 0 0 0 127 0" result="hardAlpha"/>
<feMorphology radius="1" operator="erode" in="SourceAlpha" result="effect1_dropShadow_60_27"/>
<feOffset dx="3" dy="4"/>
<feGaussianBlur stdDeviation="2"/>
<feComposite in2="hardAlpha" operator="out"/>
<feColorMatrix type="matrix" values="0 0 0 0 0 0 0 0 0 0 0 0 0 0 0 0 0 0 0.25 0"/>
<feBlend mode="normal" in2="BackgroundImageFix" result="effect1_dropShadow_60_27"/>
<feBlend mode="normal" in="SourceGraphic" in2="effect1_dropShadow_60_27" result="shape"/>
</filter>
</defs>
</svg>
