<svg xmlns="http://www.w3.org/2000/svg" xmlns:svgjs="http://svgjs.com/svgjs" xmlnsXlink="http://www.w3.org/1999/xlink" width="288" height="288"><svg xmlns="http://www.w3.org/2000/svg" width="288" height="288" enable-background="new 0 0 66 66" viewBox="0 0 66 66"><path fill="#562fac" d="M27.3,45.33L10,62.63c-1.83,1.83-4.8,1.83-6.63,0s-1.83-4.8,0-6.63l17.3-17.3L27.3,45.33z" class="color4e6575 svgShape"/><path fill="#3f53fc" d="M27.3,45.33L11.22,61.41c-0.57-0.23-1.1-0.58-1.56-1.04c-1.83-1.83-1.83-4.8,0-6.63l13.03-13.03L27.3,45.33z" class="colorfff svgShape" opacity=".4"/><rect width="3.67" height="24.52" x="30.82" y="21.09" fill="#db4987" class="colore2e2e2 svgShape" transform="rotate(45.001 32.654 33.347)"/><polygon fill="#f3bb0e" points="46.37 33.11 43.44 38.87 41.21 24.79 27.13 22.56 39.83 16.09 37.59 2 47.68 12.08 60.39 5.61 53.92 18.32 64 28.41 49.91 26.17" class="colorffab03 svgShape"/><path fill="#3f53fc" d="M49.91,26.17l-3.54,6.95c-4.53-6.66-4.45-15.51,0.24-22.1l1.07,1.07l12.71-6.47l-6.47,12.71L64,28.41L49.91,26.17z" class="colorfff svgShape" opacity=".4"/><path fill="#db4987" d="M12.36 23.38L12.36 23.38c2.01 2 5.25 2 7.26 0l0 0c-2 2-2 5.25 0 7.25l0 0c-2-2-5.25-2-7.25 0l0 0C14.36 28.63 14.36 25.38 12.36 23.38zM48.87 43.43L48.87 43.43c1.81 2.18 5.04 2.49 7.22.69l0 .01c-2.18 1.8-2.49 5.03-.69 7.22l-.01 0c-1.8-2.18-5.03-2.49-7.22-.69l0-.01C50.36 48.85 50.67 45.62 48.87 43.43zM17.96 2.58L17.96 2.58c2.7 2.69 7.08 2.69 9.78-.01l.01.01c-2.7 2.7-2.7 7.07 0 9.77l-.01.01c-2.7-2.7-7.07-2.7-9.77 0l-.01-.01C20.65 9.65 20.65 5.27 17.96 2.58z" class="colore2e2e2 svgShape"/></svg></svg>